<svg className='hover-up' width="411" height="288" viewBox="0 0 411 288" fill="white" xmlns="http://www.w3.org/2000/svg">
          <path 
            id='signature' 
            fillRule="evenodd" 
            clipRule="evenodd" 
            d="M248.138 224.416L248.722 164.314L255.56 167.574L254.982 227.647L248.138 224.416ZM359.226 216.102L358.914 276.623L352.077 273.363L352.382 212.871L359.226 216.102ZM322.407 259.545L322.701 199.036L329.545 202.267L329.233 262.787L322.407 259.545ZM292.726 245.71L293.02 185.2L299.875 188.449L299.28 248.533L292.726 245.71ZM203.841 203.53L203.988 143.712L210.57 146.541L210.667 206.772L203.841 203.53ZM218.457 210.58L219.041 150.479L225.606 153.319L225.301 213.811L218.457 210.58ZM307.762 252.488L308.084 191.985L314.911 195.227L314.344 255.317L307.762 252.488ZM263.045 231.874L263.35 171.383L270.194 174.614L269.61 234.715L263.045 231.874ZM278.08 238.653L278.403 178.15L285.229 181.392L284.663 241.482L278.08 238.653ZM233.51 217.348L233.669 157.547L240.24 160.359L240.348 220.607L233.51 217.348ZM337.443 266.324L337.754 205.803L344.592 209.063L343.867 269.827L337.443 266.324ZM367.23 271.221L367.52 212.503L374.177 208.179L373.887 266.897L367.23 271.221ZM382.203 261.495L382.493 202.777L389.149 198.453L388.859 257.171L382.203 261.495ZM402.445 189.817L401.736 248.807L395.918 252.586L396.208 193.868L402.445 189.817ZM402.573 179.076L359.734 206.903L202.524 133.062L201.967 151.068L195.655 155.001L197.055 96.2989L203.792 92.1016L202.68 128.016L242.588 102.093L358.132 157.09L354.437 29.4386L399.756 0L402.573 179.076ZM92.7153 147.288L94.2577 87.9083L101.039 91.268L99.4791 150.659L92.7153 147.288ZM136.875 169.432L138.435 110.041L144.934 112.988L143.232 173.056L136.875 169.432ZM158.203 178.334L156.099 179.645L151.637 177.172L152.915 117.367L158.755 120.16L159.603 119.632L158.203 178.334ZM122.383 162.089L123.925 102.709L130.029 105.926L128.733 165.742L122.383 162.089ZM63.0367 132.47L64.579 73.0899L71.3715 76.4673L69.8114 135.858L63.0367 132.47ZM107.196 154.614L108.756 95.2231L115.531 98.6115L113.988 157.991L107.196 154.614ZM78.206 139.956L79.7771 80.5824L85.8521 83.7932L84.3097 143.173L78.206 139.956ZM15.5417 267.214L16.5173 208.776L23.2543 204.579L21.8543 263.281L15.5417 267.214ZM181.756 163.66L183.156 104.958L189.893 100.761L188.493 159.463L181.756 163.66ZM166.62 173.09L168.02 114.388L174.739 110.202L173.339 168.904L166.62 173.09ZM30.2711 258.037L31.6712 199.335L38.4082 195.138L37.0081 253.84L30.2711 258.037ZM0.387846 276.655L1.36354 218.217L8.10053 214.02L6.70046 272.722L0.387846 276.655ZM55.3021 128.526L52.7357 127.204L52.4004 66.6617L56.6088 68.7281L55.3021 128.526ZM45.0452 180.497L0.0258556 208.545L0 30.3835L43.3572 3.37128L204.116 81.3939L158.248 109.97L44.177 52.5167L45.0452 180.497Z"
            stroke="white"
            strokeWidth="2"
          />
        </svg>